<svg width="137" height="73" viewBox="0 0 137 73" fill="none" xmlns="http://www.w3.org/2000/svg">
<rect width="137" height="73" fill="#F5F5F5"/>
<g id="DESKTOP_LOGIN_SIGNUP_INITIAL">
<rect width="1440" height="1241" transform="translate(-652 -80)" fill="url(#paint0_linear_2001_4)"/>
<g id="logo-ead" clip-path="url(#clip0_2001_4)">
<g id="Camada 2">
<g id="Camada 1-2">
<g id="Group">
<g id="Group_2">
<path id="Vector" d="M9.97281 28.3362H2.26843V42.9357H34.9402V35.5327H11.0303C10.4455 35.5327 9.97281 35.0612 9.97281 34.4779V28.3362ZM2.26843 16.7115H9.97281V10.5699C9.97281 9.98658 10.4455 9.51508 11.0303 9.51508H34.9426V2.11203H2.26843V16.7115ZM1.21097 18.8211C0.626194 18.8211 0.153503 18.3496 0.153503 17.7663V1.0548C0.153503 0.471501 0.626194 0 1.21097 0H36.0001C36.5848 0 37.0575 0.471501 37.0575 1.0548V10.5699C37.0575 11.1532 36.5848 11.6247 36.0001 11.6247H12.0877V16.7091H26.3805C26.9653 16.7091 27.438 17.1806 27.438 17.7639V27.279C27.438 27.8623 26.9653 28.3338 26.3805 28.3338H12.0877V33.4182H36.0001C36.5848 33.4182 37.0575 33.8897 37.0575 34.473V43.9881C37.0575 44.5714 36.5848 45.0429 36.0001 45.0429H1.21097C0.626194 45.0429 0.153503 44.5714 0.153503 43.9881V27.2766C0.153503 26.6933 0.626194 26.2218 1.21097 26.2218H25.3231V18.8187H1.21097V18.8211Z" fill="#4D006D"/>
<path id="Vector_2" d="M70.3842 24.1073L67.5359 17.0372L64.7095 24.1073H70.3866H70.3842ZM75.2646 36.2181H59.773L56.508 44.3794C56.3448 44.7926 55.9476 45.0429 55.5285 45.0429V45.0478H45.083C44.4983 45.0478 44.0256 44.5763 44.0256 43.993C44.0256 43.8253 44.0646 43.6697 44.1328 43.5288L61.2788 0.729128C61.4445 0.318387 61.8392 0.0680542 62.2583 0.0680542H72.8037C73.2837 0.0680542 73.6882 0.384008 73.8173 0.821483L83.4124 24.7732C83.6269 25.3128 83.3613 25.9228 82.8204 26.1367C82.6937 26.1877 82.5621 26.212 82.4329 26.212V26.2169H63.1476C62.5629 26.2169 62.0902 25.7454 62.0902 25.1621C62.0902 24.9895 62.1316 24.8267 62.2071 24.6809L66.532 13.868C66.627 13.586 66.8414 13.3479 67.1387 13.2288C67.6796 13.0125 68.2936 13.2749 68.5105 13.8145L72.6575 24.1073H80.876L72.0898 2.17766H62.9698L46.64 42.9382H54.8146L58.0455 34.8643C58.1746 34.4269 58.5791 34.1085 59.0615 34.1085H86.4435C86.9186 34.1085 87.3182 34.4196 87.4522 34.8473L90.9584 43.6017C91.1753 44.1412 90.9121 44.7537 90.3712 44.97C90.2421 45.021 90.1105 45.0453 89.9789 45.0453H79.5334C79.0608 45.0453 78.6587 44.7391 78.5247 44.3114L75.2646 36.2181ZM85.7296 36.2181H77.5403L80.2474 42.9357H88.422L85.7296 36.2181Z" fill="#4D006D"/>
<path id="Vector_3" d="M106.455 33.3113H114.366C117.363 33.3113 120.075 32.1009 122.039 30.142C124.003 28.1831 125.216 25.4781 125.216 22.4886C125.216 19.4992 124.003 16.7942 122.039 14.8353C120.075 12.8763 117.363 11.666 114.366 11.666H106.455V33.3113ZM115.536 9.60501C118.65 9.88208 121.449 11.2577 123.538 13.3406C125.884 15.6811 127.336 18.9159 127.336 22.4862C127.336 26.0565 125.884 29.2914 123.538 31.6319C121.449 33.7147 118.65 35.0904 115.536 35.3674C115.434 35.4015 115.322 35.4185 115.207 35.4185H95.5782C94.9934 35.4185 94.5207 34.947 94.5207 34.3637V1.0548C94.5207 0.471501 94.9934 0 95.5782 0H115.207C115.37 0 115.526 0.0364563 115.665 0.104508C121.354 0.427753 126.481 2.8606 130.262 6.63504C134.329 10.6914 136.846 16.2984 136.846 22.4886C136.846 28.6789 134.329 34.2859 130.262 38.3423C126.481 42.1143 121.357 44.5495 115.665 44.8728C115.526 44.9384 115.37 44.9773 115.207 44.9773H95.5782C94.9934 44.9773 94.5207 44.5058 94.5207 43.9225C94.5207 43.3392 94.9934 42.8677 95.5782 42.8677H114.366V42.8021C119.99 42.8021 125.08 40.5296 128.764 36.8524C132.448 33.1776 134.729 28.1005 134.729 22.4911C134.729 16.8817 132.45 11.8045 128.764 8.12974C125.08 4.45495 119.99 2.18008 114.366 2.18008V2.11446H96.6356V33.3137H104.34V10.6088C104.34 10.0255 104.813 9.55397 105.397 9.55397H115.207C115.322 9.55397 115.431 9.57341 115.536 9.60501Z" fill="#4D006D"/>
<path id="Vector_4" fill-rule="evenodd" clip-rule="evenodd" d="M112.703 14.0284H118.434V19.7642H123.965V25.1621H118.434V30.8979H112.703V25.1621H107.172V19.7642H112.703V14.0284Z" fill="#4D006D"/>
</g>
<g id="Group_3">
<path id="Vector_5" d="M136.23 55.9482H0.76995V72.232H136.23V55.9482ZM0.384975 55.1802H136.615C136.827 55.1802 137 55.3527 137 55.5642V72.616C137 72.8274 136.827 73 136.615 73H0.384975C0.172995 73 0 72.8274 0 72.616V55.5642C0 55.3527 0.172995 55.1802 0.384975 55.1802Z" fill="#4D006D"/>
<g id="Group_4">
<path id="Vector_6" d="M30.0914 67.0664V68.4064H25.002V61.1965H29.9678V62.5365H26.5124V64.1031H29.5634V65.3998H26.5124V67.0698H30.0914V67.0664Z" fill="#4D006D"/>
<path id="Vector_7" d="M39.2078 61.1965V68.4064H37.958L34.6832 64.0298V68.4064H33.1827V61.1965H34.4392L37.7074 65.5731V61.1965H39.2078Z" fill="#4D006D"/>
<path id="Vector_8" d="M44.1671 62.5331V64.4398H47.208V65.7798H44.1671V68.4064H42.6466V61.1965H47.6124V62.5365H44.1671V62.5331Z" fill="#4D006D"/>
<path id="Vector_9" d="M55.6128 67.0664V68.4064H50.5233V61.1965H55.4891V62.5365H52.0338V64.1031H55.0848V65.3998H52.0338V67.0698H55.6128V67.0664Z" fill="#4D006D"/>
<path id="Vector_10" d="M62.8873 68.4031L61.6207 66.3931H60.2206V68.4031H58.7001V61.1931H61.5439C63.2983 61.1931 64.3977 62.1931 64.3977 63.8098C64.3977 64.8931 63.8998 65.6831 63.0443 66.0864L64.518 68.4031H62.8839H62.8873ZM61.4603 62.5531H60.2206V65.0664H61.4603C62.3893 65.0664 62.8605 64.5931 62.8605 63.8098C62.8605 63.0264 62.3927 62.5531 61.4603 62.5531Z" fill="#4D006D"/>
<path id="Vector_11" d="M73.4602 68.4031L73.4502 64.0764L71.5153 67.6397H70.8303L68.9054 64.1698V68.4031H67.4785V61.1931H68.735L71.1945 65.6731L73.6173 61.1931H74.8671L74.8871 68.4031H73.4602Z" fill="#4D006D"/>
<path id="Vector_12" d="M82.6497 66.8597H79.5987L79.0172 68.4031H77.46L80.3873 61.1931H81.8877L84.8251 68.4031H83.2278L82.6463 66.8597H82.6497ZM82.1718 65.5931L81.1292 62.8331L80.0866 65.5931H82.1718Z" fill="#4D006D"/>
<path id="Vector_13" d="M91.7389 64.6864H93.1291V67.6131C92.4073 68.2097 91.4115 68.5297 90.4724 68.5297C88.4073 68.5297 86.8868 66.9731 86.8868 64.7998C86.8868 62.6265 88.4072 61.0698 90.4992 61.0698C91.6554 61.0698 92.6111 61.5031 93.2494 62.3165L92.2736 63.3065C91.7958 62.7498 91.241 62.4931 90.576 62.4931C89.2995 62.4931 88.4273 63.4298 88.4273 64.7998C88.4273 66.1698 89.2995 67.1064 90.5593 67.1064C90.9737 67.1064 91.358 67.0231 91.7423 66.7964V64.6864H91.7389Z" fill="#4D006D"/>
<path id="Vector_14" d="M101.504 67.0664V68.4064H96.4149V61.1965H101.381V62.5365H97.9254V64.1031H100.976V65.3998H97.9254V67.0698H101.504V67.0664Z" fill="#4D006D"/>
<path id="Vector_15" d="M110.573 68.4031L110.563 64.0764L108.628 67.6397H107.943L106.019 64.1698V68.4031H104.592V61.1931H105.848L108.308 65.6731L110.73 61.1931H111.98L112 68.4031H110.573Z" fill="#4D006D"/>
</g>
</g>
</g>
</g>
</g>
</g>
</g>
<defs>
<linearGradient id="paint0_linear_2001_4" x1="720" y1="0" x2="720" y2="1241" gradientUnits="userSpaceOnUse">
<stop stop-color="white"/>
<stop offset="1" stop-color="#FCF5FE"/>
</linearGradient>
<clipPath id="clip0_2001_4">
<rect width="137" height="73" fill="white"/>
</clipPath>
</defs>
</svg>
